<svg width="980" height="551" xmlns="http://www.w3.org/2000/svg" xmlns:xlink="http://www.w3.org/1999/xlink">
<path fill="#ff595e" d="M 423.71 233.28 Q 423.71 233.28 422.13 234.15 420.55 235.03 419.39 235.01 418.24 234.99 416.72 234.98 415.21 234.96 413.52 234.95 411.84 234.94 409.58 234.94 407.33 234.94 404.65 235.13 401.97 235.33 399.28 235.60 396.60 235.88 394.18 236.17 391.76 236.47 388.46 237.01 385.17 237.55 382.45 237.97 379.74 238.39 377.36 238.92 374.99 239.45 372.96 240.01 370.94 240.57 368.78 241.18 366.61 241.80 365.41 242.15 364.21 242.50 361.38 243.36 358.54 244.22 356.31 244.93 354.08 245.64 352.84 246.03 351.60 246.43 350.33 246.90 349.05 247.37 347.87 248.00 346.70 248.62 346.02 249.87 345.34 251.11 344.91 252.55 344.47 253.98 344.25 255.35 344.04 256.72 344.14 258.21 344.23 259.70 344.75 260.87 345.26 262.04 346.16 263.27 347.07 264.50 348.25 265.57 349.43 266.64 351.36 268.26 353.29 269.87 354.35 270.53 355.40 271.18 356.67 271.92 357.95 272.67 360.44 273.75 362.94 274.84 366.77 276.01 370.59 277.17 373.25 277.85 375.91 278.52 379.80 279.22 383.69 279.93 386.33 280.23 388.98 280.52 391.12 280.65 393.25 280.78 398.02 281.04 402.78 281.31 405.82 281.43 408.86 281.54 411.18 281.59 413.50 281.64 417.03 281.66 420.56 281.68 423.09 281.69 425.63 281.70 427.50 281.70 429.36 281.70 431.19 281.71 433.01 281.71 436.59 281.71 440.17 281.71 442.73 281.71 445.28 281.71 449.19 281.71 453.11 281.71 456.06 281.71 459.01 281.71 461.74 281.52 464.46 281.33 468.60 280.60 472.74 279.88 475.01 279.31 477.28 278.74 479.47 277.97 481.67 277.19 482.71 276.73 483.76 276.27 484.95 275.37 486.14 274.47 486.82 273.49 487.50 272.51 487.58 271.13 487.67 269.75 487.22 268.24 486.77 266.73 485.99 265.00 485.22 263.28 483.99 261.21 482.76 259.14 481.36 257.22 479.96 255.29 478.01 253.12 476.06 250.96 474.81 249.61 473.57 248.26 471.49 246.55 469.41 244.83 467.87 243.60 466.33 242.37 464.14 240.90 461.95 239.42 459.97 238.27 457.99 237.11 455.40 235.85 452.81 234.58 451.19 233.92 449.58 233.25 448.39 232.85 447.20 232.44 444.73 231.88 442.25 231.31 440.15 230.90 438.05 230.48 436.35 230.14 434.66 229.80 431.72 229.46 428.78 229.12 426.76 228.97 424.73 228.83 422.26 228.61 419.78 228.38 417.99 228.29 416.20 228.20 413.66 228.16 411.12 228.12 409.25 228.11 407.38 228.09 406.04 228.08 404.71 228.07 403.35 228.07 402.00 228.07 400.64 228.07 399.27 228.07 397.91 228.07 396.54 228.06 395.17 228.06 393.80 228.06 391.71 228.22 389.63 228.37 387.64 228.44 385.65 228.50 383.42 227.72 381.20 226.94 381.20 226.93 381.20 226.93 381.20 226.92 381.20 226.92 383.35 225.71 385.51 224.51 387.43 224.45 389.34 224.38 391.57 224.22 393.80 224.06 395.17 224.06 396.54 224.06 397.91 224.07 399.28 224.07 400.64 224.07 402.01 224.07 403.37 224.07 404.73 224.07 406.07 224.08 407.41 224.09 409.30 224.11 411.19 224.12 413.79 224.16 416.40 224.21 418.27 224.30 420.14 224.40 422.58 224.62 425.02 224.84 427.13 224.99 429.25 225.15 432.34 225.51 435.44 225.88 437.13 226.22 438.83 226.55 440.99 226.98 443.15 227.42 445.82 228.04 448.50 228.66 449.81 229.11 451.11 229.56 452.84 230.27 454.56 230.99 457.29 232.32 460.01 233.66 462.10 234.88 464.19 236.10 466.51 237.68 468.83 239.25 470.40 240.50 471.97 241.75 474.23 243.65 476.50 245.54 477.77 246.91 479.04 248.29 481.12 250.61 483.19 252.94 484.70 255.02 486.20 257.10 487.48 259.26 488.76 261.42 489.66 263.44 490.56 265.45 491.11 267.63 491.67 269.81 491.63 270.85 491.59 271.89 491.34 273.08 491.08 274.28 490.18 275.67 489.28 277.05 488.38 277.78 487.48 278.51 486.43 279.21 485.38 279.92 484.19 280.44 482.99 280.97 480.62 281.79 478.25 282.62 475.84 283.22 473.43 283.82 469.08 284.57 464.74 285.32 461.88 285.51 459.01 285.71 456.06 285.71 453.11 285.71 449.19 285.71 445.28 285.71 442.72 285.71 440.17 285.71 436.59 285.71 433.01 285.71 431.18 285.71 429.35 285.70 427.48 285.70 425.62 285.70 423.07 285.69 420.53 285.68 416.97 285.66 413.42 285.64 411.06 285.59 408.71 285.54 405.63 285.42 402.55 285.31 397.78 285.04 393.01 284.77 390.77 284.63 388.53 284.50 385.75 284.18 382.97 283.87 378.95 283.13 374.93 282.40 372.18 281.70 369.42 281.00 365.38 279.75 361.33 278.51 358.64 277.31 355.94 276.12 354.61 275.35 353.28 274.57 352.10 273.83 350.92 273.09 348.88 271.39 346.85 269.69 345.74 268.74 344.63 267.79 343.84 266.81 343.04 265.84 342.04 264.21 341.04 262.57 340.52 260.60 340.01 258.63 340.02 257.60 340.04 256.56 340.20 255.04 340.37 253.52 340.71 252.52 341.05 251.51 341.67 249.75 342.28 247.99 342.96 246.97 343.64 245.95 344.73 245.22 345.81 244.48 346.74 244.05 347.67 243.61 349.03 243.12 350.38 242.62 351.63 242.22 352.87 241.82 355.13 241.11 357.38 240.39 360.23 239.53 363.08 238.66 364.30 238.30 365.52 237.94 367.70 237.33 369.87 236.72 371.99 236.13 374.12 235.54 376.62 234.99 379.13 234.43 381.83 234.02 384.52 233.60 387.90 233.05 391.27 232.50 393.73 232.20 396.20 231.90 398.94 231.62 401.68 231.34 404.50 231.14 407.33 230.94 409.59 230.94 411.86 230.94 413.55 230.95 415.25 230.96 416.81 230.98 418.38 231.00 419.59 231.06 420.80 231.13 422.26 232.19 423.71 233.26 423.71 233.27 Z" data-drauu_index="4"></path><path fill="#ff595e" d="M 677.06 225.54 Q 677.06 225.54 673.47 226.53 669.88 227.53 666.31 227.53 662.74 227.53 660.68 227.53 658.63 227.53 655.78 227.73 652.93 227.93 647.99 229.00 643.05 230.08 640.15 230.84 637.24 231.61 633.97 232.55 630.69 233.49 628.53 234.19 626.38 234.90 623.17 236.03 619.96 237.16 617.88 238.08 615.79 239.01 612.25 240.29 608.72 241.58 606.20 242.46 603.68 243.34 601.36 244.44 599.05 245.55 598.12 246.13 597.19 246.71 596.73 248.11 596.27 249.52 597.02 251.24 597.78 252.95 599.19 254.76 600.60 256.57 601.68 257.70 602.76 258.84 604.03 259.96 605.30 261.08 606.46 262.03 607.62 262.98 609.18 264.09 610.74 265.20 612.18 266.13 613.61 267.07 616.80 268.75 619.98 270.44 623.08 271.73 626.17 273.02 629.04 274.16 631.91 275.29 635.14 276.38 638.36 277.46 640.79 278.27 643.21 279.08 646.74 280.05 650.27 281.01 655.01 281.85 659.75 282.69 667.08 283.49 674.42 284.29 681.35 284.85 688.28 285.42 695.22 285.43 702.16 285.44 707.11 285.04 712.06 284.64 718.20 283.80 724.35 282.95 728.74 282.20 733.14 281.44 739.05 280.22 744.96 279.00 748.97 277.91 752.98 276.83 757.71 275.28 762.44 273.74 767.81 271.30 773.18 268.86 777.05 266.62 780.92 264.39 782.98 262.85 785.03 261.32 786.55 259.65 788.06 257.99 788.97 256.78 789.87 255.56 790.52 254.14 791.18 252.72 791.60 251.59 792.02 250.46 792.16 249.13 792.30 247.80 792.39 246.70 792.47 245.60 791.69 243.84 790.92 242.08 790.02 240.71 789.12 239.34 788.05 237.87 786.98 236.40 785.86 235.44 784.74 234.47 783.95 233.84 783.16 233.20 781.90 232.48 780.64 231.77 779.13 231.14 777.61 230.50 775.41 229.64 773.20 228.78 770.32 228.04 767.44 227.30 763.91 226.56 760.39 225.82 756.30 224.86 752.20 223.89 744.90 222.42 737.59 220.94 731.69 219.88 725.80 218.82 720.28 218.16 714.77 217.50 709.87 217.00 704.97 216.51 700.09 216.08 695.21 215.65 690.87 215.47 686.54 215.30 683.93 214.22 681.33 213.15 681.33 213.15 681.33 213.14 681.33 213.14 681.33 213.13 684.02 212.22 686.71 211.30 691.13 211.48 695.55 211.67 700.46 212.10 705.37 212.53 710.31 213.03 715.24 213.53 720.87 214.20 726.50 214.88 732.44 215.95 738.39 217.02 745.75 218.51 753.12 220.00 757.16 220.95 761.21 221.90 764.83 222.66 768.44 223.42 771.55 224.24 774.65 225.06 776.91 225.94 779.17 226.82 780.91 227.56 782.64 228.30 784.16 229.19 785.67 230.09 786.53 230.78 787.39 231.48 788.79 232.76 790.19 234.03 791.34 235.61 792.49 237.18 793.57 238.90 794.64 240.62 795.54 243.16 796.44 245.71 796.35 247.00 796.27 248.30 796.02 250.07 795.77 251.85 795.28 253.14 794.79 254.44 793.94 256.19 793.08 257.95 792.04 259.33 791.00 260.71 789.22 262.61 787.43 264.52 785.18 266.19 782.92 267.85 778.88 270.18 774.83 272.50 769.26 275.02 763.69 277.54 758.85 279.12 754.02 280.69 749.90 281.80 745.77 282.92 739.79 284.15 733.81 285.39 729.35 286.15 724.89 286.92 718.63 287.77 712.38 288.63 707.27 289.03 702.16 289.44 695.06 289.42 687.96 289.40 680.97 288.83 673.98 288.26 666.52 287.44 659.05 286.63 654.13 285.75 649.21 284.87 645.58 283.87 641.94 282.87 639.51 282.06 637.09 281.25 633.77 280.13 630.44 279.01 627.53 277.86 624.62 276.71 621.37 275.34 618.11 273.97 614.77 272.20 611.43 270.42 609.92 269.44 608.42 268.45 606.76 267.27 605.09 266.08 603.87 265.08 602.64 264.07 601.25 262.83 599.86 261.59 598.74 260.41 597.61 259.23 595.93 257.02 594.24 254.82 593.56 253.47 592.89 252.13 592.59 250.65 592.29 249.17 592.74 247.21 593.19 245.26 594.13 244.29 595.08 243.31 596.21 242.62 597.33 241.93 599.84 240.75 602.36 239.56 604.86 238.69 607.36 237.81 610.76 236.58 614.17 235.35 616.40 234.37 618.63 233.39 621.88 232.24 625.14 231.09 627.36 230.37 629.59 229.64 632.90 228.69 636.22 227.74 639.22 226.95 642.21 226.17 647.43 225.05 652.65 223.94 655.64 223.74 658.63 223.53 660.68 223.53 662.74 223.53 666.31 223.53 669.88 223.53 673.47 224.52 677.06 225.52 677.06 225.53 Z" data-drauu_index="5"></path><path fill="#ff595e" d="M 740.83 225.13 Q 740.83 225.13 738.43 225.95 736.03 226.77 734.29 226.70 732.55 226.63 730.78 226.60 729.01 226.57 727.32 226.72 725.63 226.88 722.51 227.88 719.40 228.89 717.78 229.43 716.16 229.96 713.76 230.96 711.36 231.95 708.26 233.21 705.16 234.46 703.05 235.31 700.95 236.15 698.29 237.50 695.63 238.85 693.65 239.76 691.67 240.68 690.09 241.69 688.51 242.70 687.20 243.60 685.88 244.50 684.53 246.01 683.18 247.52 682.33 248.68 681.48 249.83 680.59 251.62 679.70 253.41 679.35 254.65 679.00 255.90 678.80 258.18 678.60 260.46 678.76 262.58 678.92 264.70 679.70 266.74 680.49 268.78 682.09 272.04 683.69 275.30 684.96 277.26 686.23 279.21 687.94 281.41 689.65 283.61 690.99 285.16 692.33 286.71 693.71 288.00 695.09 289.30 697.28 291.05 699.47 292.81 701.16 294.01 702.86 295.22 704.50 296.01 706.14 296.80 707.93 297.69 709.72 298.57 710.94 299.05 712.15 299.53 713.51 299.68 714.87 299.84 718.01 299.92 721.16 300.01 723.07 300.05 724.97 300.08 727.42 299.71 729.86 299.34 733.40 298.35 736.93 297.36 739.56 296.75 742.19 296.13 746.27 294.81 750.34 293.48 754.65 291.85 758.95 290.21 763.60 288.22 768.25 286.22 774.06 283.33 779.88 280.43 784.43 277.74 788.98 275.05 792.51 272.29 796.04 269.53 798.46 267.44 800.89 265.35 802.33 263.53 803.77 261.72 804.88 259.96 806.00 258.19 806.77 256.69 807.54 255.18 808.19 253.57 808.85 251.95 809.25 249.36 809.66 246.76 809.85 244.62 810.04 242.48 809.76 240.45 809.48 238.43 809.27 237.24 809.06 236.05 808.50 234.68 807.95 233.31 807.18 232.20 806.42 231.09 806.07 229.19 805.73 227.30 805.73 227.29 805.73 227.29 805.74 227.29 805.74 227.28 807.69 228.08 809.63 228.88 810.65 230.35 811.66 231.83 812.33 233.59 812.99 235.34 813.22 236.63 813.45 237.92 813.73 240.37 814.02 242.81 813.81 245.12 813.61 247.42 813.08 250.42 812.56 253.43 811.83 255.22 811.10 257.02 810.24 258.67 809.38 260.33 808.13 262.28 806.88 264.23 805.19 266.30 803.51 268.37 801.00 270.52 798.50 272.68 794.76 275.58 791.02 278.49 786.34 281.25 781.66 284.01 775.74 286.96 769.83 289.90 765.10 291.92 760.37 293.95 755.97 295.62 751.58 297.29 747.34 298.66 743.10 300.03 740.55 300.62 738.00 301.22 734.22 302.26 730.45 303.30 727.67 303.69 724.90 304.08 722.97 304.04 721.05 304.01 717.69 303.91 714.33 303.81 712.52 303.53 710.71 303.25 709.33 302.71 707.95 302.16 706.16 301.27 704.37 300.39 702.46 299.43 700.55 298.48 698.76 297.20 696.96 295.93 694.65 294.07 692.34 292.21 690.83 290.77 689.31 289.33 687.90 287.69 686.49 286.06 684.68 283.72 682.87 281.38 681.48 279.22 680.10 277.06 678.41 273.61 676.73 270.15 675.83 267.59 674.94 265.03 674.77 262.66 674.61 260.29 674.88 257.54 675.15 254.79 675.58 253.34 676.00 251.89 677.13 249.67 678.26 247.46 679.25 246.14 680.23 244.81 681.91 243.02 683.60 241.22 684.99 240.27 686.37 239.32 688.18 238.18 689.99 237.05 691.91 236.16 693.83 235.28 696.64 233.86 699.45 232.44 701.56 231.60 703.66 230.75 706.74 229.51 709.83 228.26 712.36 227.21 714.90 226.17 716.45 225.66 718.00 225.14 721.64 224.02 725.28 222.89 727.18 222.73 729.08 222.57 730.90 222.60 732.71 222.63 734.52 222.71 736.33 222.78 738.58 223.95 740.83 225.11 740.83 225.12 Z" data-drauu_index="6"></path><path fill="#ff595e" d="M 706.87 238.06 Q 706.87 238.06 705.67 239.63 704.47 241.19 702.54 242.21 700.60 243.23 698.19 244.64 695.79 246.06 692.94 247.88 690.08 249.70 688.29 250.76 686.50 251.83 683.94 253.49 681.38 255.14 679.67 256.31 677.96 257.48 675.93 259.29 673.90 261.11 672.61 262.80 671.32 264.50 670.45 267.06 669.58 269.62 669.35 271.41 669.12 273.20 669.17 274.66 669.22 276.12 669.66 277.32 670.10 278.53 670.61 279.91 671.11 281.29 671.94 282.57 672.76 283.86 673.87 285.56 674.98 287.27 676.45 288.78 677.91 290.29 678.83 291.14 679.75 292.00 681.43 293.28 683.11 294.56 685.40 296.09 687.69 297.62 691.15 299.30 694.61 300.99 696.84 301.86 699.07 302.72 702.28 303.71 705.48 304.70 707.92 305.47 710.36 306.25 714.08 306.98 717.81 307.71 720.64 308.02 723.47 308.33 727.94 308.46 732.41 308.59 735.86 308.65 739.32 308.71 742.01 308.55 744.70 308.39 749.34 307.67 753.97 306.94 759.20 305.48 764.43 304.01 769.98 302.06 775.52 300.11 780.16 298.03 784.81 295.95 787.83 294.54 790.86 293.13 793.90 290.92 796.94 288.72 799.14 286.50 801.34 284.28 802.99 281.44 804.65 278.60 805.52 275.95 806.40 273.31 806.77 270.99 807.13 268.66 806.75 265.28 806.36 261.90 805.84 259.15 805.33 256.40 804.22 254.08 803.10 251.76 801.48 249.42 799.86 247.08 797.54 244.45 795.22 241.82 792.86 239.52 790.50 237.22 787.17 234.56 783.85 231.90 780.41 229.76 776.98 227.63 773.39 225.44 769.81 223.25 766.01 221.30 762.20 219.34 756.05 216.86 749.89 214.38 745.03 212.92 740.17 211.46 736.06 210.43 731.96 209.40 729.48 208.97 727.00 208.54 724.16 208.16 721.32 207.78 718.63 207.62 715.94 207.46 714.25 207.39 712.55 207.32 711.16 207.45 709.77 207.57 707.40 207.14 705.04 206.70 705.04 206.70 705.04 206.69 705.04 206.69 705.03 206.68 707.23 205.13 709.43 203.58 711.07 203.45 712.71 203.33 714.44 203.40 716.18 203.47 719.02 203.64 721.85 203.81 724.77 204.21 727.68 204.60 730.31 205.06 732.93 205.52 737.13 206.57 741.32 207.63 746.36 209.15 751.39 210.67 757.71 213.22 764.04 215.78 767.96 217.81 771.89 219.84 775.49 222.04 779.09 224.23 782.72 226.50 786.35 228.78 789.82 231.57 793.29 234.36 795.76 236.77 798.22 239.18 800.69 242.00 803.16 244.82 804.94 247.44 806.72 250.06 807.99 252.85 809.25 255.64 809.80 258.56 810.34 261.48 810.71 265.37 811.08 269.27 810.64 271.93 810.19 274.59 809.14 277.61 808.10 280.62 806.14 283.85 804.19 287.08 801.74 289.52 799.28 291.96 795.92 294.35 792.56 296.75 789.50 298.18 786.44 299.60 781.64 301.74 776.85 303.89 771.18 305.88 765.51 307.86 760.05 309.38 754.59 310.89 749.76 311.64 744.93 312.39 742.09 312.55 739.26 312.71 735.77 312.65 732.28 312.59 727.66 312.45 723.03 312.31 720.03 311.97 717.03 311.63 713.09 310.85 709.14 310.06 706.73 309.29 704.31 308.52 700.96 307.48 697.61 306.45 695.23 305.52 692.85 304.58 689.16 302.76 685.46 300.94 683.07 299.34 680.68 297.74 678.85 296.33 677.02 294.93 676.02 293.99 675.02 293.05 673.33 291.26 671.64 289.46 670.50 287.72 669.37 285.97 668.37 284.33 667.37 282.68 666.83 281.23 666.30 279.78 665.76 278.02 665.23 276.27 665.19 274.46 665.16 272.66 665.48 270.47 665.81 268.29 666.97 265.20 668.12 262.10 669.68 260.12 671.24 258.13 673.47 256.15 675.70 254.17 677.46 252.98 679.21 251.78 681.83 250.09 684.46 248.39 686.19 247.36 687.93 246.33 690.85 244.47 693.76 242.61 696.26 241.14 698.76 239.68 700.86 238.60 702.96 237.53 704.91 237.79 706.86 238.05 706.86 238.06 Z" data-drauu_index="7"></path>
</svg>